<?xml version="1.0" encoding="iso-8859-1"?>
<!-- Uploaded to: SVG Repo, www.svgrepo.com, Generator: SVG Repo Mixer Tools -->
<svg fill="#000000" height="800px" width="800px" version="1.1" id="Layer_1" xmlns="http://www.w3.org/2000/svg" xmlns:xlink="http://www.w3.org/1999/xlink" 
	 viewBox="0 0 512.001 512.001" xml:space="preserve">
<g>
	<g>
		<g>
			<path d="M75.508,312.794c5.538,0,10.027-4.49,10.027-10.027v-40.11c0-5.538-4.489-10.027-10.027-10.027
				c-5.538,0-10.027,4.49-10.027,10.027v40.11C65.481,308.304,69.97,312.794,75.508,312.794z"/>
			<path d="M510.609,199.127l-65.48-111.029c-1.803-3.057-5.087-4.933-8.637-4.933c-3.549,0-6.834,1.876-8.637,4.933
				l-65.481,111.029c-1.828,3.1-1.856,6.942-0.07,10.068c1.785,3.125,5.109,5.054,8.708,5.054h15.344v25.069h-30.078
				c-5.537,0-10.027,4.49-10.027,10.027v30.358h-20.055v-30.358c0-5.537-4.49-10.027-10.027-10.027h-9.425v-96.264h15.343
				c3.599,0,6.922-1.929,8.708-5.054c1.786-3.125,1.758-6.967-0.07-10.068L265.242,16.903c-1.803-3.057-5.087-4.934-8.637-4.934
				c-3.55,0-6.834,1.876-8.638,4.934l-65.481,111.029c-1.828,3.1-1.855,6.942-0.069,10.068c1.785,3.125,5.108,5.054,8.707,5.054
				h15.343v96.264h-10.629c-5.538,0-10.027,4.49-10.027,10.027v30.358h-20.055v-30.358c0-5.537-4.489-10.027-10.027-10.027h-30.082
				v-25.069h15.343c3.599,0,6.922-1.929,8.707-5.054c1.785-3.126,1.759-6.967-0.069-10.068L84.146,88.098
				c-1.803-3.057-5.088-4.933-8.638-4.933c-3.55,0-6.834,1.876-8.638,4.933L1.39,199.127c-1.828,3.1-1.855,6.942-0.069,10.068
				c1.785,3.125,5.108,5.054,8.707,5.054h15.343v275.755c0,5.537,4.489,10.027,10.027,10.027h441.204
				c5.537,0,10.027-4.49,10.027-10.027V214.248h15.343c3.599,0,6.922-1.929,8.708-5.054
				C512.467,206.07,512.438,202.228,510.609,199.127z M235.946,239.317h-9.426v-96.264h0.001h60.165v96.264h-10.63
				c-5.537,0-10.027,4.49-10.027,10.027v30.358h-20.055v-30.358C245.974,243.807,241.484,239.317,235.946,239.317z M286.085,259.372
				h20.055v20.331h-20.055V259.372z M256.604,41.737l47.925,81.262h-95.85L256.604,41.737z M205.865,259.372h20.055v20.331h-20.055
				V259.372z M125.645,259.372H145.7v20.331h-20.055V259.372z M105.59,479.976H45.426V214.248h60.165V479.976z M27.583,194.194
				l47.925-81.261l47.925,81.261H27.583z M246.576,479.976h-40.711v-85.835c0-24.302,17.595-44.557,40.711-48.732V479.976z
				 M306.139,479.977h-39.507v-0.001V345.627c22.523,4.649,39.507,24.634,39.507,48.514V479.977z M386.355,479.977h-60.161v-85.836
				c0-38.372-31.218-69.59-69.59-69.59h-1.203c-38.372,0-69.591,31.219-69.591,69.59v85.836h-60.165V299.759h260.709V479.977z
				 M386.355,279.703h-20.051v-20.331h20.051V279.703z M466.575,479.976h-60.161l-0.004-265.728h60.165V479.976z M388.566,194.194
				l47.926-81.261l47.925,81.261H388.566z"/>
			<path d="M436.492,312.794c5.537,0,10.027-4.49,10.027-10.027v-40.11c0-5.537-4.49-10.027-10.027-10.027
				s-10.027,4.49-10.027,10.027v40.11C426.465,308.304,430.954,312.794,436.492,312.794z"/>
			<path d="M75.508,355.012c5.538,0,10.027-4.49,10.027-10.027v-1.73c0-5.537-4.489-10.027-10.027-10.027
				c-5.538,0-10.027,4.49-10.027,10.027v1.73C65.481,350.522,69.97,355.012,75.508,355.012z"/>
			<path d="M436.492,355.012c5.537,0,10.027-4.49,10.027-10.027v-1.73c0-5.537-4.49-10.027-10.027-10.027
				s-10.027,4.49-10.027,10.027v1.73C426.465,350.523,430.954,355.012,436.492,355.012z"/>
			<path d="M256.604,220.542c5.537,0,10.027-4.49,10.027-10.027v-40.11c0-5.537-4.49-10.027-10.027-10.027
				c-5.538,0-10.027,4.49-10.027,10.027v40.11C246.576,216.051,251.066,220.542,256.604,220.542z"/>
		</g>
	</g>
</g>
</svg>